<svg id="Graphic_Elements" data-name="Graphic Elements" xmlns="http://www.w3.org/2000/svg" viewBox="0 0 1200 1200"><metadata><?xpacket begin="﻿" id="W5M0MpCehiHzreSzNTczkc9d"?>
<x:xmpmeta xmlns:x="adobe:ns:meta/" x:xmptk="Adobe XMP Core 6.0-c002 79.164488, 2020/07/10-22:06:53        ">
   <rdf:RDF xmlns:rdf="http://www.w3.org/1999/02/22-rdf-syntax-ns#">
      <rdf:Description rdf:about=""
            xmlns:xmp="http://ns.adobe.com/xap/1.0/"
            xmlns:xmpMM="http://ns.adobe.com/xap/1.0/mm/"
            xmlns:stEvt="http://ns.adobe.com/xap/1.0/sType/ResourceEvent#">
         <xmp:Label>Approved</xmp:Label>
         <xmp:MetadataDate>2022-05-04T13:10:10+07:00</xmp:MetadataDate>
         <xmpMM:InstanceID>xmp.iid:a0638bf4-9257-4685-bacc-112cb6be19fb</xmpMM:InstanceID>
         <xmpMM:DocumentID>xmp.did:a0638bf4-9257-4685-bacc-112cb6be19fb</xmpMM:DocumentID>
         <xmpMM:OriginalDocumentID>xmp.did:a0638bf4-9257-4685-bacc-112cb6be19fb</xmpMM:OriginalDocumentID>
         <xmpMM:History>
            <rdf:Seq>
               <rdf:li>
                  <rdf:Description>
                     <stEvt:action>saved</stEvt:action>
                     <stEvt:instanceID>xmp.iid:a0638bf4-9257-4685-bacc-112cb6be19fb</stEvt:instanceID>
                     <stEvt:when>2022-05-04T13:10:10+07:00</stEvt:when>
                     <stEvt:softwareAgent>Adobe Bridge 2021 (Macintosh)</stEvt:softwareAgent>
                     <stEvt:changed>/metadata</stEvt:changed>
                  </rdf:Description>
               </rdf:li>
            </rdf:Seq>
         </xmpMM:History>
      </rdf:Description>
   </rdf:RDF>
</x:xmpmeta>
                                                                                                    
                                                                                                    
                                                                                                    
                                                                                                    
                                                                                                    
                                                                                                    
                                                                                                    
                                                                                                    
                                                                                                    
                                                                                                    
                                                                                                    
                                                                                                    
                                                                                                    
                                                                                                    
                                                                                                    
                                                                                                    
                                                                                                    
                                                                                                    
                                                                                                    
                                                                                                    
                           
<?xpacket end="w"?></metadata>
<defs><style>.cls-1{fill:#056839;}.cls-2{fill:#0b9844;}.cls-3{fill:#0b9644;}.cls-4{fill:#0b9544;}.cls-5{fill:#a97b50;}.cls-6{fill:#8b5e3b;}.cls-7{fill:#39b54a;}.cls-8{fill:#e7e6c1;}</style></defs><g id="Graphic_Elements-2" data-name="Graphic Elements"><path class="cls-1" d="M841.17,52.45c1.31-2.15,4.05-1.7,6.2-2,37.24-2.22,74.49,4.13,110.27,14a514.88,514.88,0,0,1,113.88,48c-54.15,7.74-108,21.37-157.25,45.64-11.76,5.64-22.79,12.62-33.84,19.49-16.94-5.84-33-14.09-49.81-20.51,1.85,11.88,4.19,23.69,6.1,35.58-55.13.5-109.62,14.08-160.27,35.42-29.54,12.76-58.2,28-84.41,46.69,32.72-12,67.36-18.09,102-20.89,68.38-5.42,137.18,2.66,203.85,17.89,2.12,11.66,3.4,23.47,5.71,35.11,10.68-6.28,21.4-12.48,32.06-18.75,21.68,10.68,41.66,24.51,60.69,39.32,33.13,26.33,63,57.07,86.88,92.1A717.93,717.93,0,0,0,906.14,372a628.89,628.89,0,0,0-116.6-5.22c-5.47-8.85-10.49-17.95-16-26.74-4.73,6.78-9.33,13.64-13.95,20.47-48.26-29.22-105.21-45.22-161.74-41.73,12.16,4.77,25.06,7.37,37.45,11.59,52,16.65,103.36,37.3,148.76,68,19.53,13.5,38,29.1,51.9,48.55-4.49,7.38-9,14.76-13.28,22.24,8.07.15,16.15,0,24.25.29,15.41,18.79,26.64,40.68,35.42,63.24a326.92,326.92,0,0,1,20.91,103.61c-24.43-42.85-60.22-78.24-100-106.9-26.43-19-55.1-34.76-84.7-48.28,2-7.46,4.09-14.86,6.14-22.28-10.77,1.6-21.49,3.5-32.21,5.25-27-27.9-54.56-55.28-83.14-81.57-14.5-13.33-29.25-26.42-44.94-38.32a525,525,0,0,0-55.94,49.31,610.72,610.72,0,0,0-62.13,72.63c-1.18,1.22-2.18,3.4-4.21,3.11-10.42-.11-20.81-1.18-31.22-1.31,6.95,9.51,14.07,18.89,21.19,28.29C402.22,537,375.83,580.69,357.8,628c-11.8,31.17-19.5,64.62-16.24,98.11-14.88-22-21.77-48.29-26.33-74.15-9.34-59.06-2.3-119.49,11.35-177.32,4.17-17.29,8.84-34.47,14.31-51.41C352,421.63,363,419.74,374,417.9c-3.59-9-7.08-18-10.84-26.9,16.16-18.06,36.76-31.61,58.36-42.27,30.5-14.9,64.05-22.46,97.73-25.49-16.08-5-32.93-7-49.56-9.26-66.56-7.68-136.94-1.87-197.2,29.39-10-6.88-19.56-14.43-29.63-21.21-.4,11.28,0,22.56-.16,33.86.35,5.35-4.85,8.48-7.4,12.59-31.29,42-48.52,94.1-49.26,146.4-.33,11.48.74,22.93,1.24,34.38-13.43-15.75-23.05-34.44-30.6-53.62a260.81,260.81,0,0,1-16.88-95.66c-.42-2.34,2.37-2.94,3.85-3.89,7.23-3.47,14.59-6.68,21.82-10.16-6.08-6.61-13.12-12.22-19.5-18.52,16.11-42.06,46.72-78.07,84.25-102.69,40.81-26.7,89.85-38.91,138.29-39.7a5.38,5.38,0,0,1,5,2c4.84,5.09,9.27,10.6,14.16,15.7,5.42-4.44,10.3-9.49,15.73-13.91,1.64-1.63,4-1.48,6.17-1.6,36.1-1.12,72.87,4.49,105.81,19.78-13.63-21.18-32.62-38.42-53.13-52.78-56.21-38.93-124.68-55.43-192-61.22-1.05-8.59-2.25-17.13-3.54-25.66-8.77,5.75-16.8,12.6-25.68,18.18-16.89-1.64-33.93-3.52-50.94-2.21-24.86.85-49.35,5.54-73.48,11.25,13.47-19.35,33.51-33.09,54-44.15C221.79,64,280.87,58.12,337.58,61.18c13.05.85,26.08,2,39,3.74,1.66.34,4.29.3,4.55,2.59,3.08,10,5.38,20.28,8.65,30.27,8.14-4.56,15.77-10.14,24.25-14,21.25,4.71,41.2,14.33,60,25.23a223.91,223.91,0,0,1,63.31,56c10.08,12.94,18.08,27.33,25.27,42,21.16-42.63,55.29-78,95-103.86,45-29.12,97.35-46,150.46-52,4.65,9.73,9.23,19.51,14.14,29.13,6.65-9.06,12.34-18.81,18.95-27.89M207.53,96.36c-6.48,1.71-14.42.91-19.31,6.2,6.69.06,13.21-1.49,19.72-2.86a309.62,309.62,0,0,1,164,14c47.91,17.51,91.45,45.89,128.74,80.53,11.52,11.53,23.64,22.6,33.7,35.5a18.42,18.42,0,0,0,7.87,5.85c-3.29-7.66-9.66-13.21-15-19.39a265.5,265.5,0,0,0-24.17-24.44c-36.17-33.51-78-61.3-124.19-79C324.8,91.58,264.73,85.54,207.53,96.36M892.14,102c-56.68,4.14-113.09,15.31-166.25,35.64-47.83,18.12-93.38,43.38-131.95,77.15-6.89,6.51-15.21,12.06-19.53,20.79,5.66-1.06,9.16-5.83,13-9.63,9.89-10.37,21.31-19.1,32.69-27.73,43.3-31.53,92.47-54.49,143.69-69.82,56.12-16.58,114.69-24.44,173.17-24.68,15.46-.38,30.91.82,46.37.31a3.85,3.85,0,0,0-3.74-2.83c-29.12-2.22-58.33-1.07-87.43.8M261.49,283c-18.28,9.68-35.21,22.4-48.13,38.67-18.24,22.28-29.69,49.43-36,77.35-5.89,26.48-8.09,53.72-7.65,80.8l3,0c.71-25.66,1.55-51.49,7.31-76.6,5.86-27.48,16.51-54.38,33.87-76.66,13.22-15.91,28.86-30.18,47.52-39.44,28.7-15.4,61.5-21,93.73-22.16,57.95-1,115.43,11.91,169.64,31.73-.13-.9-.4-2.71-.53-3.62-4.27-1.74-8.54-3.45-12.92-4.85C459.71,271,405.4,259.87,350.78,261.71c-30.69,1.34-61.72,7.22-89.29,21.25m354.73,7.38c-9.28,1-18.76,1.12-27.66,4.21,5.31,3.48,11.76.43,17.57.25A566.87,566.87,0,0,1,683.76,292c62.85,1.41,125.45,11.12,186,27.85,53.78,14.71,105.65,35.86,155.3,61.11.4-.68,1.2-2,1.58-2.72A787.88,787.88,0,0,0,815.75,303.4c-65.55-13-132.85-18.33-199.53-13.06m-92.33,47.21a309.52,309.52,0,0,0-115.83,86C375.46,462.29,352.91,509,340.7,558c-6.83,28.16-11.53,57-12,86,3.92-1.28,3.23-5.89,3.74-9.13,4.18-73.14,27.64-146.61,74.18-203.95,33.16-40.62,76.08-74,125.32-92.6,2.37-.68,3.54-2.9,5.16-4.54a51.57,51.57,0,0,0-13.21,3.74m60.39-3.72c2.89,5.74,10,6.37,15.18,9.08a709.15,709.15,0,0,1,158.78,96C796.75,470,831.57,506,858.75,547.49c3.64,5.34,6,12,12,15.25-1.73-6.2-5.33-11.58-9-16.79-29.61-45.33-68.36-84.12-110.95-117.28a732.67,732.67,0,0,0-134.54-81.94C605.74,342.21,595.57,336.36,584.28,333.83Z"/><path class="cls-2" d="M207.53,96.36C264.73,85.54,324.8,91.58,379,112.78c46.14,17.72,88,45.51,124.19,79a265.5,265.5,0,0,1,24.17,24.44c5.31,6.18,11.68,11.73,15,19.39a18.42,18.42,0,0,1-7.87-5.85c-10.06-12.9-22.18-24-33.7-35.5-37.29-34.64-80.83-63-128.74-80.53a309.62,309.62,0,0,0-164-14c-6.51,1.37-13,2.92-19.72,2.86C193.11,97.27,201.05,98.07,207.53,96.36Z"/><path class="cls-3" d="M892.14,102c29.1-1.87,58.31-3,87.43-.8a3.85,3.85,0,0,1,3.74,2.83c-15.46.51-30.91-.69-46.37-.31-58.48.24-117.05,8.1-173.17,24.68-51.22,15.33-100.39,38.29-143.69,69.82-11.38,8.63-22.8,17.36-32.69,27.73-3.82,3.8-7.32,8.57-13,9.63,4.32-8.73,12.64-14.28,19.53-20.79,38.57-33.77,84.12-59,131.95-77.15C779.05,117.3,835.46,106.13,892.14,102Z"/><path class="cls-4" d="M261.49,283c27.57-14,58.6-19.91,89.29-21.25,54.62-1.84,108.93,9.31,160.54,26.49,4.38,1.4,8.65,3.11,12.92,4.85.13.91.4,2.72.53,3.62C470.56,276.85,413.08,264,355.13,264.94c-32.23,1.13-65,6.76-93.73,22.16-18.66,9.26-34.3,23.53-47.52,39.44-17.36,22.28-28,49.18-33.87,76.66-5.76,25.11-6.6,50.94-7.31,76.6l-3,0c-.44-27.08,1.76-54.32,7.65-80.8,6.34-27.92,17.79-55.07,36-77.35C226.28,305.36,243.21,292.64,261.49,283Z"/><path class="cls-3" d="M616.22,290.34c66.68-5.27,134,.1,199.53,13.06a787.88,787.88,0,0,1,210.93,74.86c-.38.69-1.18,2-1.58,2.72-49.65-25.25-101.52-46.4-155.3-61.11-60.59-16.73-123.19-26.44-186-27.85a566.87,566.87,0,0,0-77.63,2.78c-5.81.18-12.26,3.23-17.57-.25C597.46,291.46,606.94,291.33,616.22,290.34Z"/><path class="cls-4" d="M523.89,337.55a51.57,51.57,0,0,1,13.21-3.74c-1.62,1.64-2.79,3.86-5.16,4.54-49.24,18.63-92.16,52-125.32,92.6-46.54,57.34-70,130.81-74.18,204-.51,3.24.18,7.85-3.74,9.13.47-29,5.17-57.88,12-86,12.21-49,34.76-95.7,67.36-134.4A309.52,309.52,0,0,1,523.89,337.55Z"/><path class="cls-2" d="M584.28,333.83c11.29,2.53,21.46,8.38,32,12.9a732.67,732.67,0,0,1,134.54,81.94C793.44,461.83,832.19,500.62,861.8,546c3.62,5.21,7.22,10.59,9,16.79-6-3.26-8.36-9.91-12-15.25C831.57,506,796.75,470,758.24,438.9a709.15,709.15,0,0,0-158.78-96C594.25,340.2,587.17,339.57,584.28,333.83Z"/><path class="cls-5" d="M508.41,393.53a525,525,0,0,1,55.94-49.31c15.69,11.9,30.44,25,44.94,38.32a47.63,47.63,0,0,1-9.87,4.67c-7.69,1.77-15.6.5-23.2-1-3.6,9.54-9,18.85-18.05,24.17a35.48,35.48,0,0,1-34.68-.25C516.68,406.46,512.08,400.1,508.41,393.53Z"/><path class="cls-6" d="M576.22,386.18c7.6,1.53,15.51,2.8,23.2,1,50.86,193.23,82.2,391.28,99.34,590.24,1.17,11.94,1.51,24,3.07,35.89.5.32,1.51.94,2,1.27l-.14,1c-2.64,8.78-.15,17.92-.5,26.88a441.76,441.76,0,0,1-11.84,73.73c-1.93-20.61-1.11-41.75-6.75-61.82-1.85,10.27-1,20.74-1.78,31.1-1.41,20.47-4.34,41-11.07,60.5l-3.23-1.87c5.29-46.09,2.74-92.63-1-138.72-1.87-14.29-1.87-29.15-7.29-42.68-3.18,12.53-1.49,25.52-2.18,38.3-1.38,36.35-5.92,72.88-16.55,107.76-.08-19.25-.37-38.53-2.37-57.7-1-8.16-.8-16.91-4.7-24.26-1.43,11.4-.4,22.9-1.4,34.35-1.13,13.59-2.86,27.18-6.32,40.4-1.85-18.27-1.19-37-6.49-54.79-2.84,19.55-.33,39.66-5.08,59,.22-33.85-1.42-67.66-4.19-101.37,6.53-81,6-162.43.89-243.46a2076,2076,0,0,0-53.65-350.66C567.21,405,572.62,395.72,576.22,386.18Z"/><path class="cls-7" d="M658,1001c.69-12.78-1-25.77,2.18-38.3,5.42,13.53,5.42,28.39,7.29,42.68,3.77,46.09,6.32,92.63,1,138.72-12.44-8.29-23.58-19.06-38.11-23.7-15.29-5.81-32.14-5-47.66-.64a230.84,230.84,0,0,0-5.2-47.75,280.36,280.36,0,0,0-8.57-31.22c-1.88-5.64-4.11-11.25-4.77-17.2,6.64,7.19,9.71,16.76,14,25.39q4.53,10,8.55,20.21c2,4.93,3.85,9.94,5.78,14.93,1.12-6,2.09-11.94,3-17.91,5-27.86,6.38-56.22,6.25-84.49.06-5.09.32-10.26,2.1-15.08,5,11.93,4.84,25.19,7,37.79,2.77,33.71,4.41,67.52,4.19,101.37,4.75-19.38,2.24-39.49,5.08-59,5.3,17.74,4.64,36.52,6.49,54.79,3.46-13.22,5.19-26.81,6.32-40.4,1-11.45,0-23,1.4-34.35,3.9,7.35,3.69,16.1,4.7,24.26,2,19.17,2.29,38.45,2.37,57.7C652.11,1073.92,656.65,1037.39,658,1001Z"/><path class="cls-7" d="M706,982.35c5.56,8.55,4.63,19.49,6.47,29.22,3.42,30.4,4.89,61,5.45,91.57a215.07,215.07,0,0,0,12.43-30.25c2.91-8.49,4.62-17.46,9-25.37.21,11.12-2.37,22-4.44,32.88-2.21,10.4-4.41,20.83-7.23,31.08-1.33,5.7-6,9.51-9.37,14-5.82,7.36-10.37,16.2-18.6,21.22-8.51,5.23-19.45,3.67-28-.69,6.73-19.47,9.66-40,11.07-60.5.78-10.36-.07-20.83,1.78-31.1,5.64,20.07,4.82,41.21,6.75,61.82a441.76,441.76,0,0,0,11.84-73.73c.54-8.94,1.63-17.94.5-26.88l.14-1C705.32,1003.9,703.52,992.94,706,982.35Z"/><path class="cls-8" d="M703.2,1042.5c.35-9-2.14-18.1.5-26.88C704.83,1024.56,703.74,1033.56,703.2,1042.5Z"/><path class="cls-8" d="M586.78,1069.23c2.89-1.11,5.79-2.15,8.79-3-.92,6-1.89,11.94-3,17.91C590.63,1079.17,588.76,1074.16,586.78,1069.23Z"/></g></svg>